# xmcd
#
# Track frame offsets:
#       150
#       16892
#       30575
#       41587
#       60787
#       78830
#       95482
#       107910
#       122425
#       137345
#       153920
#       166520
#
# Disc length: 2424 seconds
#
# Revision: 0
# Processed by: cddbd v1.4PL0 Copyright (c) Steve Scherf et al.
# Submitted via: CD-DA_X-Tractor v0.23
#
DISCID=7909760c
DTITLE=Johnny Rodriguez - You can say that again
DYEAR=1996
DGENRE=Country
TTITLE0=Big red sun blues
TTITLE1=If I'd left it up to you
TTITLE2=It might take a while but I'll get over you
TTITLE3=Every night about this time
TTITLE4=Corpus Christi Bay
TTITLE5=Mexico rain
TTITLE6=There's still a lot of love in San Antone
TTITLE7=The best thing going
TTITLE8=You can say that again
TTITLE9=When it's your turn to fall
TTITLE10=What a memory you'll make
TTITLE11=No news is good news
EXTD=
EXTT0=
EXTT1=
EXTT2=
EXTT3=
EXTT4=
EXTT5=
EXTT6=
EXTT7=
EXTT8=
EXTT9=
EXTT10=
EXTT11=
PLAYORDER=
